<svg width="60" height="68" viewBox="0 0 60 68" fill="none" xmlns="http://www.w3.org/2000/svg">
<path d="M17 38.4167H47L46.1605 53.9987C45.755 61.5233 39.5355 67.4167 32 67.4167V67.4167C24.4645 67.4167 18.245 61.5233 17.8395 53.9987L17 38.4167Z" fill="#B9CAAC"/>
<path d="M31.5 38.9167C32.2828 34.6114 34.5336 31.088 37.0581 28.4167M44.5 22.9167C42.6272 23.768 39.6935 25.628 37.0581 28.4167M37.0581 28.4167C35.872 25.2501 34.8 18.1167 40 14.9167C45.2 11.7167 54.1667 12.2501 58 12.9167C57.5 17.4167 56.3425 24.1008 51 27.4167C46.3621 30.2954 39.872 28.4167 37.0581 28.4167Z" stroke="#B9CAAC" stroke-width="2"/>
<path d="M31.5 38.4167C31.5 32.9221 29.8285 24.8838 25 19.9167M15 10.9167C20 14.4167 22.3589 17.1999 25 19.9167M25 19.9167C26.3333 16.6385 26.7 7.91675 21.5 3.91675C16.3 -0.0832517 7.16667 1.08342 2 1.41676C3 5.25009 4.13721 13.0617 9 16.9167C14.4029 21.2 18.5 21.4167 25 19.9167Z" stroke="#B9CAAC" stroke-width="2"/>
</svg>
