<svg width="61" height="61" viewBox="0 0 61 61" fill="none" xmlns="http://www.w3.org/2000/svg">
<path d="M19.6075 51.106L19.0561 41H38.9439L38.3925 51.106C38.1203 56.0945 33.9959 60 29 60C24.0041 60 19.8797 56.0945 19.6075 51.106Z" stroke="#B9CAAC" stroke-width="2"/>
<path d="M29 40.5C34.6772 28.3841 40.5 17.0001 60.5 17M29 40.5C21 31.5 15.5 24.5 1 29.5M29 40.5C21.6282 17.917 17.0354 16.7396 4.5 7.5M29 40.5C28.2538 28.2462 27.9778 21.4613 21 5.5M29 40.5C29.0342 28.4049 29.0307 21.5819 32.5 15M29 40.5C34.5583 23.1715 34.5 12.5 48 1M29 40.5C36.0495 33.07 40.2283 29.6379 49.5 29.5" stroke="#B9CAAC" stroke-width="2"/>
</svg>
