<svg width="58" height="59" viewBox="0 0 58 59" fill="none" xmlns="http://www.w3.org/2000/svg">
<path d="M46.2082 2.93975C48.9036 16.0849 47.3797 21.2322 43.6344 29.6669C43.6344 29.6669 40.5055 20.478 41.0523 14.8001C41.5991 9.12221 46.2082 2.93975 46.2082 2.93975Z" fill="#F7FFF1" stroke="#B9CAAC" stroke-width="2"/>
<path d="M0 42.2727C0 38.2561 3.25611 35 7.27273 35H50.7273C54.7439 35 58 38.2561 58 42.2727V42.2727C58 51.5109 50.5109 59 41.2727 59H16.7273C7.48905 59 0 51.5109 0 42.2727V42.2727Z" fill="#B9CAAC"/>
<path d="M9.35214 16.3631C9.28426 27.0993 12.4085 30.699 19.0528 36.3052C19.0528 36.3052 20.6208 28.5086 18.56 24.2722C16.4992 20.0357 9.35214 16.3631 9.35214 16.3631Z" stroke="#B9CAAC" stroke-width="2"/>
<path d="M26.13 15.6765C29.8266 28.1919 33.6498 31.643 41.0644 36.5967C41.0644 36.5967 39.6269 27.1485 36.4542 22.7043C33.2816 18.26 26.13 15.6765 26.13 15.6765Z" stroke="#B9CAAC" stroke-width="2"/>
<path d="M30.3335 17.2628C29.407 27.5058 26.1461 30.6681 19.4001 35.4393C19.4001 35.4393 18.6492 27.8696 20.9719 24.0082C23.2945 20.1468 30.3335 17.2628 30.3335 17.2628Z" fill="#F7FFF1" stroke="#B9CAAC" stroke-width="2"/>
<path d="M55.5573 13.5408C53.1634 26.83 49.3245 30.4492 41.6297 35.613C41.6297 35.613 41.9029 25.5589 44.8617 20.8699C47.8204 16.1809 55.5573 13.5408 55.5573 13.5408Z" fill="#F7FFF1" stroke="#B9CAAC" stroke-width="2"/>
<path d="M17.781 12.0949C13.7426 21.5537 15.1154 25.8837 18.7947 33.282C18.7947 33.282 23.0433 26.9722 22.828 22.4712C22.6126 17.9703 17.781 12.0949 17.781 12.0949Z" fill="#F7FFF1" stroke="#B9CAAC" stroke-width="2"/>
<path d="M36.9714 7.73605C34.9265 20.7482 36.7086 25.9883 40.879 34.645C40.879 34.645 43.5549 25.619 42.7248 19.9025C41.8947 14.186 36.9714 7.73605 36.9714 7.73605Z" fill="#F7FFF1" stroke="#B9CAAC" stroke-width="2"/>
</svg>
